<svg xmlns="http://www.w3.org/2000/svg" viewBox="0 0 160 120" width="320" height="240">
  <rect width="160" height="120" fill="#4a0a2e"/>
  <circle cx="0" cy="0" r="70" fill="white" opacity="0.025"/>
  <circle cx="160" cy="120" r="80" fill="white" opacity="0.025"/>

  <circle cx="80" cy="58" r="22" fill="none" stroke="#f9a8d4" stroke-width="2" opacity="0.7"/>
  <circle cx="80" cy="58" r="14" fill="#f9a8d4" opacity="0.15"/>
  <path d="M80 36 L83 50 L80 58 L77 50 Z" fill="#f9a8d4" opacity="0.6"/>
  <path d="M102 58 L88 61 L80 58 L88 55 Z" fill="#f9a8d4" opacity="0.5"/>
  <path d="M80 80 L77 66 L80 58 L83 66 Z" fill="#f9a8d4" opacity="0.45"/>
  <path d="M58 58 L72 55 L80 58 L72 61 Z" fill="#f9a8d4" opacity="0.5"/>
  <circle cx="80" cy="58" r="5" fill="#f9a8d4" opacity="0.8"/>
  <path d="M70 82 Q80 76 90 82 Q86 92 80 94 Q74 92 70 82Z" fill="#f9a8d4" opacity="0.35" stroke="#f9a8d4" stroke-width="1.5"/>

</svg>